<mxfile host="app.diagrams.net" agent="Mozilla/5.0 (X11; Linux x86_64) AppleWebKit/537.36 (KHTML, like Gecko) Chrome/128.0.0.0 Safari/537.36 Edg/128.0.0.0" version="24.7.7">
  <diagram name="Page-1" id="4Rlts1a2XRjA42yKQ_KK">
    <mxGraphModel dx="7153" dy="4320" grid="1" gridSize="10" guides="1" tooltips="1" connect="1" arrows="1" fold="1" page="1" pageScale="1" pageWidth="850" pageHeight="1100" math="0" shadow="0">
      <root>
        <mxCell id="0" />
        <mxCell id="1" parent="0" />
        <mxCell id="fXF9OLCS9gmYI80QFEl_-1" value="&lt;h1 style=&quot;margin-top: 0px;&quot;&gt;Fase 2&lt;/h1&gt;&lt;p&gt;Discovery inicial de modelos.&lt;/p&gt;&lt;p&gt;Objetivo:&lt;/p&gt;&lt;p&gt;Encontrar 3 estruturas de modelos mais promissoras&lt;/p&gt;" style="text;html=1;whiteSpace=wrap;overflow=hidden;rounded=0;" vertex="1" parent="1">
          <mxGeometry x="310" y="80" width="180" height="160" as="geometry" />
        </mxCell>
        <mxCell id="fXF9OLCS9gmYI80QFEl_-2" value="Referencial teórico" style="rounded=1;whiteSpace=wrap;html=1;" vertex="1" parent="1">
          <mxGeometry x="-660" y="220" width="120" height="60" as="geometry" />
        </mxCell>
        <mxCell id="fXF9OLCS9gmYI80QFEl_-4" value="&lt;h1 style=&quot;margin-top: 0px;&quot;&gt;Fase 1&lt;/h1&gt;&lt;p&gt;Definição da abordagem macro&lt;/p&gt;&lt;p&gt;Objetivo:&lt;/p&gt;&lt;p&gt;Determinar entre&amp;nbsp;&lt;/p&gt;&lt;p&gt;* supervisionado vs não supervisionado.&lt;/p&gt;&lt;p&gt;* regressão vs. classificação&lt;/p&gt;" style="text;html=1;whiteSpace=wrap;overflow=hidden;rounded=0;" vertex="1" parent="1">
          <mxGeometry x="-680" y="10" width="180" height="190" as="geometry" />
        </mxCell>
        <mxCell id="fXF9OLCS9gmYI80QFEl_-5" value="Entendimento do problema" style="rounded=1;whiteSpace=wrap;html=1;" vertex="1" parent="1">
          <mxGeometry x="-810" y="220" width="120" height="60" as="geometry" />
        </mxCell>
        <mxCell id="fXF9OLCS9gmYI80QFEl_-6" value="&lt;div&gt;Testes&lt;/div&gt;&lt;div&gt;&lt;span style=&quot;background-color: initial;&quot;&gt;Se Necessário&lt;/span&gt;&lt;br&gt;&lt;/div&gt;" style="rounded=1;whiteSpace=wrap;html=1;" vertex="1" parent="1">
          <mxGeometry x="-510" y="220" width="120" height="60" as="geometry" />
        </mxCell>
        <mxCell id="fXF9OLCS9gmYI80QFEl_-7" value="&lt;div&gt;Regressão vs. Classificação&lt;/div&gt;" style="text;html=1;align=center;verticalAlign=middle;whiteSpace=wrap;rounded=0;" vertex="1" parent="1">
          <mxGeometry x="-500" y="290" width="120" height="30" as="geometry" />
        </mxCell>
        <mxCell id="fXF9OLCS9gmYI80QFEl_-8" value="&lt;div&gt;Supervisionado vs. Não Supervisionado vs. Reforço&lt;/div&gt;" style="text;html=1;align=center;verticalAlign=middle;whiteSpace=wrap;rounded=0;" vertex="1" parent="1">
          <mxGeometry x="-500" y="340" width="120" height="30" as="geometry" />
        </mxCell>
        <mxCell id="fXF9OLCS9gmYI80QFEl_-9" value="Tem target?&lt;div&gt;&lt;br&gt;&lt;div&gt;Target é uma variável do tipo categórica?&lt;/div&gt;&lt;div&gt;Target tem muitas classes?&lt;/div&gt;&lt;div&gt;&lt;br&gt;&lt;/div&gt;&lt;div&gt;Target é contínuo ou poderia ser reescrito como uma variável contínua via encorders?&lt;/div&gt;&lt;/div&gt;" style="text;html=1;align=center;verticalAlign=middle;whiteSpace=wrap;rounded=0;" vertex="1" parent="1">
          <mxGeometry x="-730" y="320" width="120" height="190" as="geometry" />
        </mxCell>
        <mxCell id="fXF9OLCS9gmYI80QFEl_-12" value="Elencar várias estruturas de modelo" style="rounded=1;whiteSpace=wrap;html=1;" vertex="1" parent="1">
          <mxGeometry x="190" y="280" width="120" height="60" as="geometry" />
        </mxCell>
        <mxCell id="fXF9OLCS9gmYI80QFEl_-13" value="&lt;div&gt;Regressão logística&lt;/div&gt;&lt;div&gt;Regressão clássica&lt;/div&gt;&lt;div&gt;SVM&lt;/div&gt;&lt;div&gt;Random Forest&lt;/div&gt;&lt;div&gt;XGBoost&lt;/div&gt;&lt;div&gt;Catboost&lt;/div&gt;&lt;div&gt;LightGBM&lt;/div&gt;&lt;div&gt;NeuralNetworks&lt;/div&gt;&lt;div&gt;LSTM&lt;/div&gt;&lt;div&gt;KANs&lt;/div&gt;" style="text;html=1;align=center;verticalAlign=middle;whiteSpace=wrap;rounded=0;" vertex="1" parent="1">
          <mxGeometry x="190" y="350" width="120" height="160" as="geometry" />
        </mxCell>
        <mxCell id="fXF9OLCS9gmYI80QFEl_-14" value="Definir 1 conjunto de hiperparâmetros default p/ todos" style="rounded=1;whiteSpace=wrap;html=1;" vertex="1" parent="1">
          <mxGeometry x="350" y="280" width="120" height="60" as="geometry" />
        </mxCell>
        <mxCell id="fXF9OLCS9gmYI80QFEl_-15" value="&lt;div&gt;Testes&lt;/div&gt;" style="rounded=1;whiteSpace=wrap;html=1;" vertex="1" parent="1">
          <mxGeometry x="510" y="280" width="120" height="60" as="geometry" />
        </mxCell>
        <mxCell id="fXF9OLCS9gmYI80QFEl_-16" value="Dos modelos iniciais, quais foram os 3 mais promissores?" style="text;html=1;align=center;verticalAlign=middle;whiteSpace=wrap;rounded=0;" vertex="1" parent="1">
          <mxGeometry x="525" y="350" width="90" height="110" as="geometry" />
        </mxCell>
        <mxCell id="fXF9OLCS9gmYI80QFEl_-17" value="&lt;h1 style=&quot;margin-top: 0px;&quot;&gt;Fase 3&lt;/h1&gt;&lt;p&gt;&lt;span style=&quot;background-color: initial;&quot;&gt;Análise das variáveis:&lt;/span&gt;&lt;/p&gt;&lt;p&gt;&lt;span style=&quot;background-color: initial;&quot;&gt;* Matriz de Autocorrelação (X,X)&lt;/span&gt;&lt;/p&gt;&lt;p&gt;&lt;span style=&quot;background-color: initial;&quot;&gt;* Matriz de Correlação Cruzada (X,Y)&lt;/span&gt;&lt;/p&gt;&lt;p&gt;&lt;span style=&quot;background-color: initial;&quot;&gt;Objetivos:&lt;/span&gt;&lt;/p&gt;&lt;p&gt;&lt;span style=&quot;background-color: initial;&quot;&gt;Entender se existem redundâncias nos dados de entrada (auto-correlação X-X)&lt;br&gt;&lt;/span&gt;&lt;/p&gt;&lt;p&gt;&lt;span style=&quot;background-color: initial;&quot;&gt;Entender a força da relação entre uma entrada e a saída (correlação x-y)&lt;/span&gt;&lt;/p&gt;" style="text;html=1;whiteSpace=wrap;overflow=hidden;rounded=0;" vertex="1" parent="1">
          <mxGeometry x="1185" y="-30" width="180" height="280" as="geometry" />
        </mxCell>
        <mxCell id="fXF9OLCS9gmYI80QFEl_-18" value="Montar matriz de correlação entre todos inputs" style="rounded=1;whiteSpace=wrap;html=1;" vertex="1" parent="1">
          <mxGeometry x="1055" y="280" width="120" height="60" as="geometry" />
        </mxCell>
        <mxCell id="fXF9OLCS9gmYI80QFEl_-19" value="Correlação:&lt;div&gt;xk - xj, k != j&lt;/div&gt;&lt;div&gt;&lt;br&gt;&lt;div&gt;x1-x2, x1-x3 ... x1-xn&lt;/div&gt;&lt;div&gt;x2-x3, ... x2-xn&lt;/div&gt;&lt;div&gt;xn-1-xn&lt;/div&gt;&lt;/div&gt;" style="text;html=1;align=center;verticalAlign=middle;whiteSpace=wrap;rounded=0;" vertex="1" parent="1">
          <mxGeometry x="1040" y="340" width="150" height="90" as="geometry" />
        </mxCell>
        <mxCell id="fXF9OLCS9gmYI80QFEl_-20" value="Montar matriz de correlação entre inputs e outputs" style="rounded=1;whiteSpace=wrap;html=1;" vertex="1" parent="1">
          <mxGeometry x="1215" y="280" width="120" height="60" as="geometry" />
        </mxCell>
        <mxCell id="fXF9OLCS9gmYI80QFEl_-21" value="Correlação:&lt;div&gt;xk - y&lt;/div&gt;&lt;div&gt;&lt;br&gt;&lt;div&gt;x1-y, x2-y ... xn-y&lt;/div&gt;&lt;/div&gt;" style="text;html=1;align=center;verticalAlign=middle;whiteSpace=wrap;rounded=0;" vertex="1" parent="1">
          <mxGeometry x="1200" y="340" width="150" height="90" as="geometry" />
        </mxCell>
        <mxCell id="fXF9OLCS9gmYI80QFEl_-23" value="Corte de variáveis a priori" style="rounded=1;whiteSpace=wrap;html=1;" vertex="1" parent="1">
          <mxGeometry x="1375" y="280" width="120" height="60" as="geometry" />
        </mxCell>
        <mxCell id="fXF9OLCS9gmYI80QFEl_-25" value="Definir um % de corte para altas correlações X-X e baixas correlações X-Y" style="text;html=1;align=center;verticalAlign=middle;whiteSpace=wrap;rounded=0;" vertex="1" parent="1">
          <mxGeometry x="1375" y="340" width="120" height="80" as="geometry" />
        </mxCell>
        <mxCell id="fXF9OLCS9gmYI80QFEl_-26" value="&lt;h1 style=&quot;margin-top: 0px;&quot;&gt;Fase 4&lt;/h1&gt;&lt;p&gt;Verificação dos Cortes de Variáveis&lt;/p&gt;&lt;p&gt;Objetivo:&lt;/p&gt;&lt;p&gt;Identificar impactos de performance nos 3 modelos escolhidos da Fase 2&lt;/p&gt;" style="text;html=1;whiteSpace=wrap;overflow=hidden;rounded=0;" vertex="1" parent="1">
          <mxGeometry x="2030" y="70" width="180" height="160" as="geometry" />
        </mxCell>
        <mxCell id="fXF9OLCS9gmYI80QFEl_-27" value="Ex:&lt;div&gt;Das correlações X-X, remover as 10% maiores&lt;/div&gt;&lt;div&gt;Das correlações X-Y, manter as 90% maiores&lt;/div&gt;" style="text;html=1;align=center;verticalAlign=middle;whiteSpace=wrap;rounded=0;" vertex="1" parent="1">
          <mxGeometry x="1375" y="430" width="130" height="100" as="geometry" />
        </mxCell>
        <mxCell id="fXF9OLCS9gmYI80QFEl_-28" value="&lt;div&gt;Testes&lt;/div&gt;" style="rounded=1;whiteSpace=wrap;html=1;" vertex="1" parent="1">
          <mxGeometry x="2040" y="270" width="120" height="60" as="geometry" />
        </mxCell>
        <mxCell id="fXF9OLCS9gmYI80QFEl_-29" value="Dos modelos iniciais, quais foram os 3 mais promissores?" style="text;html=1;align=center;verticalAlign=middle;whiteSpace=wrap;rounded=0;" vertex="1" parent="1">
          <mxGeometry x="2055" y="340" width="90" height="110" as="geometry" />
        </mxCell>
        <mxCell id="fXF9OLCS9gmYI80QFEl_-30" value="&lt;h1 style=&quot;margin-top: 0px;&quot;&gt;Fase 5&lt;/h1&gt;&lt;p&gt;Grid Search macro&lt;/p&gt;&lt;p&gt;Objetivo:&lt;/p&gt;&lt;p&gt;Encontrar 1 modelo campeão&lt;/p&gt;&lt;p&gt;Avaliar o modelo que se sobressai diante de uma busca grosseira variando hyperparametros&amp;nbsp;&lt;/p&gt;" style="text;html=1;whiteSpace=wrap;overflow=hidden;rounded=0;" vertex="1" parent="1">
          <mxGeometry x="2910" y="50" width="180" height="200" as="geometry" />
        </mxCell>
        <mxCell id="fXF9OLCS9gmYI80QFEl_-31" value="&lt;div&gt;Testes&lt;/div&gt;" style="rounded=1;whiteSpace=wrap;html=1;" vertex="1" parent="1">
          <mxGeometry x="2920" y="280" width="120" height="60" as="geometry" />
        </mxCell>
        <mxCell id="fXF9OLCS9gmYI80QFEl_-47" style="edgeStyle=none;rounded=0;orthogonalLoop=1;jettySize=auto;html=1;exitX=0;exitY=1;exitDx=0;exitDy=0;entryX=0.5;entryY=0;entryDx=0;entryDy=0;" edge="1" parent="1" source="fXF9OLCS9gmYI80QFEl_-32" target="fXF9OLCS9gmYI80QFEl_-35">
          <mxGeometry relative="1" as="geometry" />
        </mxCell>
        <mxCell id="fXF9OLCS9gmYI80QFEl_-48" style="edgeStyle=none;rounded=0;orthogonalLoop=1;jettySize=auto;html=1;exitX=1;exitY=1;exitDx=0;exitDy=0;entryX=0.5;entryY=0;entryDx=0;entryDy=0;" edge="1" parent="1" source="fXF9OLCS9gmYI80QFEl_-32" target="fXF9OLCS9gmYI80QFEl_-36">
          <mxGeometry relative="1" as="geometry" />
        </mxCell>
        <mxCell id="fXF9OLCS9gmYI80QFEl_-32" value="Supervisionado" style="ellipse;whiteSpace=wrap;html=1;aspect=fixed;" vertex="1" parent="1">
          <mxGeometry x="-1025" y="530" width="80" height="80" as="geometry" />
        </mxCell>
        <mxCell id="fXF9OLCS9gmYI80QFEl_-35" value="Regressão" style="ellipse;whiteSpace=wrap;html=1;aspect=fixed;" vertex="1" parent="1">
          <mxGeometry x="-1100" y="640" width="80" height="80" as="geometry" />
        </mxCell>
        <mxCell id="fXF9OLCS9gmYI80QFEl_-36" value="Classificação" style="ellipse;whiteSpace=wrap;html=1;aspect=fixed;" vertex="1" parent="1">
          <mxGeometry x="-960" y="640" width="80" height="80" as="geometry" />
        </mxCell>
        <mxCell id="fXF9OLCS9gmYI80QFEl_-49" style="edgeStyle=none;rounded=0;orthogonalLoop=1;jettySize=auto;html=1;exitX=0;exitY=1;exitDx=0;exitDy=0;entryX=0.5;entryY=0;entryDx=0;entryDy=0;" edge="1" parent="1" source="fXF9OLCS9gmYI80QFEl_-38" target="fXF9OLCS9gmYI80QFEl_-39">
          <mxGeometry relative="1" as="geometry" />
        </mxCell>
        <mxCell id="fXF9OLCS9gmYI80QFEl_-50" style="edgeStyle=none;rounded=0;orthogonalLoop=1;jettySize=auto;html=1;exitX=1;exitY=1;exitDx=0;exitDy=0;entryX=0.5;entryY=0;entryDx=0;entryDy=0;" edge="1" parent="1" source="fXF9OLCS9gmYI80QFEl_-38" target="fXF9OLCS9gmYI80QFEl_-40">
          <mxGeometry relative="1" as="geometry" />
        </mxCell>
        <mxCell id="fXF9OLCS9gmYI80QFEl_-38" value="Não&lt;div&gt;Supervisionado&lt;/div&gt;" style="ellipse;whiteSpace=wrap;html=1;aspect=fixed;" vertex="1" parent="1">
          <mxGeometry x="-775" y="530" width="80" height="80" as="geometry" />
        </mxCell>
        <mxCell id="fXF9OLCS9gmYI80QFEl_-39" value="Clustering" style="ellipse;whiteSpace=wrap;html=1;aspect=fixed;" vertex="1" parent="1">
          <mxGeometry x="-850" y="640" width="80" height="80" as="geometry" />
        </mxCell>
        <mxCell id="fXF9OLCS9gmYI80QFEl_-40" value="KNN" style="ellipse;whiteSpace=wrap;html=1;aspect=fixed;" vertex="1" parent="1">
          <mxGeometry x="-710" y="640" width="80" height="80" as="geometry" />
        </mxCell>
        <mxCell id="fXF9OLCS9gmYI80QFEl_-51" style="edgeStyle=none;rounded=0;orthogonalLoop=1;jettySize=auto;html=1;exitX=0;exitY=1;exitDx=0;exitDy=0;entryX=0.5;entryY=0;entryDx=0;entryDy=0;" edge="1" parent="1" source="fXF9OLCS9gmYI80QFEl_-41" target="fXF9OLCS9gmYI80QFEl_-42">
          <mxGeometry relative="1" as="geometry" />
        </mxCell>
        <mxCell id="fXF9OLCS9gmYI80QFEl_-52" style="edgeStyle=none;rounded=0;orthogonalLoop=1;jettySize=auto;html=1;exitX=1;exitY=1;exitDx=0;exitDy=0;entryX=0.5;entryY=0;entryDx=0;entryDy=0;" edge="1" parent="1" source="fXF9OLCS9gmYI80QFEl_-41" target="fXF9OLCS9gmYI80QFEl_-43">
          <mxGeometry relative="1" as="geometry" />
        </mxCell>
        <mxCell id="fXF9OLCS9gmYI80QFEl_-41" value="Reforço" style="ellipse;whiteSpace=wrap;html=1;aspect=fixed;" vertex="1" parent="1">
          <mxGeometry x="-525" y="530" width="80" height="80" as="geometry" />
        </mxCell>
        <mxCell id="fXF9OLCS9gmYI80QFEl_-42" value="Q-Learning" style="ellipse;whiteSpace=wrap;html=1;aspect=fixed;" vertex="1" parent="1">
          <mxGeometry x="-600" y="640" width="80" height="80" as="geometry" />
        </mxCell>
        <mxCell id="fXF9OLCS9gmYI80QFEl_-43" value="Policy Based" style="ellipse;whiteSpace=wrap;html=1;aspect=fixed;" vertex="1" parent="1">
          <mxGeometry x="-460" y="640" width="80" height="80" as="geometry" />
        </mxCell>
        <mxCell id="fXF9OLCS9gmYI80QFEl_-53" value="Obs: Quanto maior o conhecimento do problema e da teoria, menor essa árvore de experimentos (podendo nem precisar dela)" style="text;html=1;align=center;verticalAlign=middle;whiteSpace=wrap;rounded=0;" vertex="1" parent="1">
          <mxGeometry x="-805" y="730" width="140" height="90" as="geometry" />
        </mxCell>
        <mxCell id="fXF9OLCS9gmYI80QFEl_-54" value="Reg. Logística" style="ellipse;whiteSpace=wrap;html=1;aspect=fixed;" vertex="1" parent="1">
          <mxGeometry x="210" y="620" width="80" height="80" as="geometry" />
        </mxCell>
        <mxCell id="fXF9OLCS9gmYI80QFEl_-55" value="..." style="ellipse;whiteSpace=wrap;html=1;aspect=fixed;" vertex="1" parent="1">
          <mxGeometry x="320" y="620" width="80" height="80" as="geometry" />
        </mxCell>
        <mxCell id="fXF9OLCS9gmYI80QFEl_-56" value="..." style="ellipse;whiteSpace=wrap;html=1;aspect=fixed;" vertex="1" parent="1">
          <mxGeometry x="430" y="620" width="80" height="80" as="geometry" />
        </mxCell>
        <mxCell id="fXF9OLCS9gmYI80QFEl_-57" value="KANs" style="ellipse;whiteSpace=wrap;html=1;aspect=fixed;" vertex="1" parent="1">
          <mxGeometry x="535" y="620" width="80" height="80" as="geometry" />
        </mxCell>
        <mxCell id="fXF9OLCS9gmYI80QFEl_-63" style="edgeStyle=none;rounded=0;orthogonalLoop=1;jettySize=auto;html=1;exitX=0;exitY=1;exitDx=0;exitDy=0;entryX=0.5;entryY=0;entryDx=0;entryDy=0;" edge="1" parent="1" source="fXF9OLCS9gmYI80QFEl_-58" target="fXF9OLCS9gmYI80QFEl_-60">
          <mxGeometry relative="1" as="geometry" />
        </mxCell>
        <mxCell id="fXF9OLCS9gmYI80QFEl_-64" style="edgeStyle=none;rounded=0;orthogonalLoop=1;jettySize=auto;html=1;exitX=0.5;exitY=1;exitDx=0;exitDy=0;entryX=0.5;entryY=0;entryDx=0;entryDy=0;" edge="1" parent="1" source="fXF9OLCS9gmYI80QFEl_-58" target="fXF9OLCS9gmYI80QFEl_-61">
          <mxGeometry relative="1" as="geometry" />
        </mxCell>
        <mxCell id="fXF9OLCS9gmYI80QFEl_-65" style="edgeStyle=none;rounded=0;orthogonalLoop=1;jettySize=auto;html=1;exitX=1;exitY=1;exitDx=0;exitDy=0;entryX=0.5;entryY=0;entryDx=0;entryDy=0;" edge="1" parent="1" source="fXF9OLCS9gmYI80QFEl_-58" target="fXF9OLCS9gmYI80QFEl_-62">
          <mxGeometry relative="1" as="geometry" />
        </mxCell>
        <mxCell id="fXF9OLCS9gmYI80QFEl_-58" value="% corte x-x" style="ellipse;whiteSpace=wrap;html=1;aspect=fixed;" vertex="1" parent="1">
          <mxGeometry x="1060" y="620" width="80" height="80" as="geometry" />
        </mxCell>
        <mxCell id="fXF9OLCS9gmYI80QFEl_-60" value="10%" style="ellipse;whiteSpace=wrap;html=1;aspect=fixed;" vertex="1" parent="1">
          <mxGeometry x="930" y="735" width="80" height="80" as="geometry" />
        </mxCell>
        <mxCell id="fXF9OLCS9gmYI80QFEl_-61" value="15%" style="ellipse;whiteSpace=wrap;html=1;aspect=fixed;" vertex="1" parent="1">
          <mxGeometry x="1055" y="735" width="80" height="80" as="geometry" />
        </mxCell>
        <mxCell id="fXF9OLCS9gmYI80QFEl_-62" value="20%" style="ellipse;whiteSpace=wrap;html=1;aspect=fixed;" vertex="1" parent="1">
          <mxGeometry x="1190" y="740" width="80" height="80" as="geometry" />
        </mxCell>
        <mxCell id="fXF9OLCS9gmYI80QFEl_-66" style="edgeStyle=none;rounded=0;orthogonalLoop=1;jettySize=auto;html=1;exitX=0;exitY=1;exitDx=0;exitDy=0;entryX=0.5;entryY=0;entryDx=0;entryDy=0;" edge="1" parent="1" source="fXF9OLCS9gmYI80QFEl_-69" target="fXF9OLCS9gmYI80QFEl_-70">
          <mxGeometry relative="1" as="geometry" />
        </mxCell>
        <mxCell id="fXF9OLCS9gmYI80QFEl_-67" style="edgeStyle=none;rounded=0;orthogonalLoop=1;jettySize=auto;html=1;exitX=0.5;exitY=1;exitDx=0;exitDy=0;entryX=0.5;entryY=0;entryDx=0;entryDy=0;" edge="1" parent="1" source="fXF9OLCS9gmYI80QFEl_-69" target="fXF9OLCS9gmYI80QFEl_-71">
          <mxGeometry relative="1" as="geometry" />
        </mxCell>
        <mxCell id="fXF9OLCS9gmYI80QFEl_-68" style="edgeStyle=none;rounded=0;orthogonalLoop=1;jettySize=auto;html=1;exitX=1;exitY=1;exitDx=0;exitDy=0;entryX=0.5;entryY=0;entryDx=0;entryDy=0;" edge="1" parent="1" source="fXF9OLCS9gmYI80QFEl_-69" target="fXF9OLCS9gmYI80QFEl_-72">
          <mxGeometry relative="1" as="geometry" />
        </mxCell>
        <mxCell id="fXF9OLCS9gmYI80QFEl_-69" value="% corte x-y" style="ellipse;whiteSpace=wrap;html=1;aspect=fixed;" vertex="1" parent="1">
          <mxGeometry x="1450" y="620" width="80" height="80" as="geometry" />
        </mxCell>
        <mxCell id="fXF9OLCS9gmYI80QFEl_-70" value="90%" style="ellipse;whiteSpace=wrap;html=1;aspect=fixed;" vertex="1" parent="1">
          <mxGeometry x="1320" y="735" width="80" height="80" as="geometry" />
        </mxCell>
        <mxCell id="fXF9OLCS9gmYI80QFEl_-71" value="80%" style="ellipse;whiteSpace=wrap;html=1;aspect=fixed;" vertex="1" parent="1">
          <mxGeometry x="1445" y="735" width="80" height="80" as="geometry" />
        </mxCell>
        <mxCell id="fXF9OLCS9gmYI80QFEl_-72" value="75%" style="ellipse;whiteSpace=wrap;html=1;aspect=fixed;" vertex="1" parent="1">
          <mxGeometry x="1580" y="740" width="80" height="80" as="geometry" />
        </mxCell>
        <mxCell id="fXF9OLCS9gmYI80QFEl_-73" value="Reg. Logística" style="ellipse;whiteSpace=wrap;html=1;aspect=fixed;" vertex="1" parent="1">
          <mxGeometry x="1960" y="490" width="80" height="80" as="geometry" />
        </mxCell>
        <mxCell id="fXF9OLCS9gmYI80QFEl_-74" value="Random Forest" style="ellipse;whiteSpace=wrap;html=1;aspect=fixed;" vertex="1" parent="1">
          <mxGeometry x="2070" y="490" width="80" height="80" as="geometry" />
        </mxCell>
        <mxCell id="fXF9OLCS9gmYI80QFEl_-75" value="ANN" style="ellipse;whiteSpace=wrap;html=1;aspect=fixed;" vertex="1" parent="1">
          <mxGeometry x="2180" y="490" width="80" height="80" as="geometry" />
        </mxCell>
        <mxCell id="fXF9OLCS9gmYI80QFEl_-85" style="edgeStyle=none;rounded=0;orthogonalLoop=1;jettySize=auto;html=1;exitX=0;exitY=1;exitDx=0;exitDy=0;entryX=0.5;entryY=0;entryDx=0;entryDy=0;" edge="1" parent="1" source="fXF9OLCS9gmYI80QFEl_-76" target="fXF9OLCS9gmYI80QFEl_-77">
          <mxGeometry relative="1" as="geometry" />
        </mxCell>
        <mxCell id="fXF9OLCS9gmYI80QFEl_-92" style="edgeStyle=none;rounded=0;orthogonalLoop=1;jettySize=auto;html=1;exitX=1;exitY=1;exitDx=0;exitDy=0;entryX=0.5;entryY=0;entryDx=0;entryDy=0;" edge="1" parent="1" source="fXF9OLCS9gmYI80QFEl_-76" target="fXF9OLCS9gmYI80QFEl_-78">
          <mxGeometry relative="1" as="geometry" />
        </mxCell>
        <mxCell id="fXF9OLCS9gmYI80QFEl_-76" value="Reg. Logística" style="ellipse;whiteSpace=wrap;html=1;aspect=fixed;" vertex="1" parent="1">
          <mxGeometry x="2660" y="500" width="80" height="80" as="geometry" />
        </mxCell>
        <mxCell id="fXF9OLCS9gmYI80QFEl_-86" style="edgeStyle=none;rounded=0;orthogonalLoop=1;jettySize=auto;html=1;exitX=0.5;exitY=1;exitDx=0;exitDy=0;entryX=0.5;entryY=0;entryDx=0;entryDy=0;" edge="1" parent="1" source="fXF9OLCS9gmYI80QFEl_-77" target="fXF9OLCS9gmYI80QFEl_-79">
          <mxGeometry relative="1" as="geometry" />
        </mxCell>
        <mxCell id="fXF9OLCS9gmYI80QFEl_-87" style="edgeStyle=none;rounded=0;orthogonalLoop=1;jettySize=auto;html=1;exitX=0.5;exitY=1;exitDx=0;exitDy=0;entryX=0.5;entryY=0;entryDx=0;entryDy=0;" edge="1" parent="1" source="fXF9OLCS9gmYI80QFEl_-77" target="fXF9OLCS9gmYI80QFEl_-80">
          <mxGeometry relative="1" as="geometry" />
        </mxCell>
        <mxCell id="fXF9OLCS9gmYI80QFEl_-88" style="edgeStyle=none;rounded=0;orthogonalLoop=1;jettySize=auto;html=1;exitX=0.5;exitY=1;exitDx=0;exitDy=0;entryX=0.5;entryY=0;entryDx=0;entryDy=0;" edge="1" parent="1" source="fXF9OLCS9gmYI80QFEl_-77" target="fXF9OLCS9gmYI80QFEl_-81">
          <mxGeometry relative="1" as="geometry" />
        </mxCell>
        <mxCell id="fXF9OLCS9gmYI80QFEl_-77" value="Regularização L2 (Ridge)" style="ellipse;whiteSpace=wrap;html=1;aspect=fixed;" vertex="1" parent="1">
          <mxGeometry x="2570" y="610" width="80" height="80" as="geometry" />
        </mxCell>
        <mxCell id="fXF9OLCS9gmYI80QFEl_-89" style="edgeStyle=none;rounded=0;orthogonalLoop=1;jettySize=auto;html=1;exitX=0.5;exitY=1;exitDx=0;exitDy=0;entryX=0.5;entryY=0;entryDx=0;entryDy=0;" edge="1" parent="1" source="fXF9OLCS9gmYI80QFEl_-78" target="fXF9OLCS9gmYI80QFEl_-82">
          <mxGeometry relative="1" as="geometry" />
        </mxCell>
        <mxCell id="fXF9OLCS9gmYI80QFEl_-90" style="edgeStyle=none;rounded=0;orthogonalLoop=1;jettySize=auto;html=1;exitX=0.5;exitY=1;exitDx=0;exitDy=0;entryX=0.5;entryY=0;entryDx=0;entryDy=0;" edge="1" parent="1" source="fXF9OLCS9gmYI80QFEl_-78" target="fXF9OLCS9gmYI80QFEl_-83">
          <mxGeometry relative="1" as="geometry" />
        </mxCell>
        <mxCell id="fXF9OLCS9gmYI80QFEl_-91" style="edgeStyle=none;rounded=0;orthogonalLoop=1;jettySize=auto;html=1;exitX=0.5;exitY=1;exitDx=0;exitDy=0;entryX=0.5;entryY=0;entryDx=0;entryDy=0;" edge="1" parent="1" source="fXF9OLCS9gmYI80QFEl_-78" target="fXF9OLCS9gmYI80QFEl_-84">
          <mxGeometry relative="1" as="geometry" />
        </mxCell>
        <mxCell id="fXF9OLCS9gmYI80QFEl_-78" value="Regularização L1 (LASSO)" style="ellipse;whiteSpace=wrap;html=1;aspect=fixed;" vertex="1" parent="1">
          <mxGeometry x="2740" y="610" width="80" height="80" as="geometry" />
        </mxCell>
        <mxCell id="fXF9OLCS9gmYI80QFEl_-79" value="alpha&lt;div&gt;0.01&lt;/div&gt;" style="ellipse;whiteSpace=wrap;html=1;aspect=fixed;" vertex="1" parent="1">
          <mxGeometry x="2430" y="730" width="80" height="80" as="geometry" />
        </mxCell>
        <mxCell id="fXF9OLCS9gmYI80QFEl_-80" value="alpha&lt;div&gt;0.1&lt;/div&gt;" style="ellipse;whiteSpace=wrap;html=1;aspect=fixed;" vertex="1" parent="1">
          <mxGeometry x="2530" y="730" width="80" height="80" as="geometry" />
        </mxCell>
        <mxCell id="fXF9OLCS9gmYI80QFEl_-81" value="alpha&lt;div&gt;1.0&lt;/div&gt;" style="ellipse;whiteSpace=wrap;html=1;aspect=fixed;" vertex="1" parent="1">
          <mxGeometry x="2630" y="730" width="80" height="80" as="geometry" />
        </mxCell>
        <mxCell id="fXF9OLCS9gmYI80QFEl_-82" value="alpha&lt;div&gt;0.01&lt;/div&gt;" style="ellipse;whiteSpace=wrap;html=1;aspect=fixed;" vertex="1" parent="1">
          <mxGeometry x="2730" y="730" width="80" height="80" as="geometry" />
        </mxCell>
        <mxCell id="fXF9OLCS9gmYI80QFEl_-83" value="alpha&lt;div&gt;0.1&lt;/div&gt;" style="ellipse;whiteSpace=wrap;html=1;aspect=fixed;" vertex="1" parent="1">
          <mxGeometry x="2830" y="730" width="80" height="80" as="geometry" />
        </mxCell>
        <mxCell id="fXF9OLCS9gmYI80QFEl_-84" value="alpha&lt;div&gt;1.0&lt;/div&gt;" style="ellipse;whiteSpace=wrap;html=1;aspect=fixed;" vertex="1" parent="1">
          <mxGeometry x="2930" y="730" width="80" height="80" as="geometry" />
        </mxCell>
        <mxCell id="fXF9OLCS9gmYI80QFEl_-103" style="edgeStyle=none;rounded=0;orthogonalLoop=1;jettySize=auto;html=1;exitX=0.5;exitY=1;exitDx=0;exitDy=0;entryX=0.5;entryY=0;entryDx=0;entryDy=0;" edge="1" parent="1" source="fXF9OLCS9gmYI80QFEl_-93" target="fXF9OLCS9gmYI80QFEl_-94">
          <mxGeometry relative="1" as="geometry" />
        </mxCell>
        <mxCell id="fXF9OLCS9gmYI80QFEl_-104" style="edgeStyle=none;rounded=0;orthogonalLoop=1;jettySize=auto;html=1;exitX=0.5;exitY=1;exitDx=0;exitDy=0;entryX=0.5;entryY=0;entryDx=0;entryDy=0;" edge="1" parent="1" source="fXF9OLCS9gmYI80QFEl_-93" target="fXF9OLCS9gmYI80QFEl_-95">
          <mxGeometry relative="1" as="geometry" />
        </mxCell>
        <mxCell id="fXF9OLCS9gmYI80QFEl_-105" style="edgeStyle=none;rounded=0;orthogonalLoop=1;jettySize=auto;html=1;exitX=0.5;exitY=1;exitDx=0;exitDy=0;entryX=0.5;entryY=0;entryDx=0;entryDy=0;" edge="1" parent="1" source="fXF9OLCS9gmYI80QFEl_-93" target="fXF9OLCS9gmYI80QFEl_-96">
          <mxGeometry relative="1" as="geometry" />
        </mxCell>
        <mxCell id="fXF9OLCS9gmYI80QFEl_-93" value="Random Forest" style="ellipse;whiteSpace=wrap;html=1;aspect=fixed;" vertex="1" parent="1">
          <mxGeometry x="3200" y="500" width="80" height="80" as="geometry" />
        </mxCell>
        <mxCell id="fXF9OLCS9gmYI80QFEl_-100" style="edgeStyle=none;rounded=0;orthogonalLoop=1;jettySize=auto;html=1;exitX=0.5;exitY=1;exitDx=0;exitDy=0;entryX=0.5;entryY=0;entryDx=0;entryDy=0;" edge="1" parent="1" source="fXF9OLCS9gmYI80QFEl_-94" target="fXF9OLCS9gmYI80QFEl_-97">
          <mxGeometry relative="1" as="geometry" />
        </mxCell>
        <mxCell id="fXF9OLCS9gmYI80QFEl_-94" value="n_estimators" style="ellipse;whiteSpace=wrap;html=1;aspect=fixed;" vertex="1" parent="1">
          <mxGeometry x="3100" y="610" width="80" height="80" as="geometry" />
        </mxCell>
        <mxCell id="fXF9OLCS9gmYI80QFEl_-95" value="max_depth" style="ellipse;whiteSpace=wrap;html=1;aspect=fixed;" vertex="1" parent="1">
          <mxGeometry x="3200" y="610" width="80" height="80" as="geometry" />
        </mxCell>
        <mxCell id="fXF9OLCS9gmYI80QFEl_-99" style="edgeStyle=none;rounded=0;orthogonalLoop=1;jettySize=auto;html=1;exitX=1;exitY=1;exitDx=0;exitDy=0;entryX=0.5;entryY=0;entryDx=0;entryDy=0;" edge="1" parent="1" source="fXF9OLCS9gmYI80QFEl_-96" target="fXF9OLCS9gmYI80QFEl_-98">
          <mxGeometry relative="1" as="geometry" />
        </mxCell>
        <mxCell id="fXF9OLCS9gmYI80QFEl_-96" value="min_samples&lt;div&gt;_leaf&lt;/div&gt;" style="ellipse;whiteSpace=wrap;html=1;aspect=fixed;" vertex="1" parent="1">
          <mxGeometry x="3290" y="610" width="80" height="80" as="geometry" />
        </mxCell>
        <mxCell id="fXF9OLCS9gmYI80QFEl_-97" value="100" style="ellipse;whiteSpace=wrap;html=1;aspect=fixed;" vertex="1" parent="1">
          <mxGeometry x="3070" y="730" width="80" height="80" as="geometry" />
        </mxCell>
        <mxCell id="fXF9OLCS9gmYI80QFEl_-98" value="1" style="ellipse;whiteSpace=wrap;html=1;aspect=fixed;" vertex="1" parent="1">
          <mxGeometry x="3380" y="730" width="80" height="80" as="geometry" />
        </mxCell>
        <mxCell id="fXF9OLCS9gmYI80QFEl_-101" value="..." style="ellipse;whiteSpace=wrap;html=1;aspect=fixed;" vertex="1" parent="1">
          <mxGeometry x="3190" y="730" width="80" height="80" as="geometry" />
        </mxCell>
        <mxCell id="fXF9OLCS9gmYI80QFEl_-102" value="..." style="ellipse;whiteSpace=wrap;html=1;aspect=fixed;" vertex="1" parent="1">
          <mxGeometry x="3280" y="730" width="80" height="80" as="geometry" />
        </mxCell>
        <mxCell id="fXF9OLCS9gmYI80QFEl_-109" style="edgeStyle=none;rounded=0;orthogonalLoop=1;jettySize=auto;html=1;exitX=0.5;exitY=1;exitDx=0;exitDy=0;entryX=0.5;entryY=0;entryDx=0;entryDy=0;" edge="1" parent="1" source="fXF9OLCS9gmYI80QFEl_-106" target="fXF9OLCS9gmYI80QFEl_-107">
          <mxGeometry relative="1" as="geometry" />
        </mxCell>
        <mxCell id="fXF9OLCS9gmYI80QFEl_-106" value="KANs" style="ellipse;whiteSpace=wrap;html=1;aspect=fixed;" vertex="1" parent="1">
          <mxGeometry x="3540" y="500" width="80" height="80" as="geometry" />
        </mxCell>
        <mxCell id="fXF9OLCS9gmYI80QFEl_-110" style="edgeStyle=none;rounded=0;orthogonalLoop=1;jettySize=auto;html=1;exitX=0.5;exitY=1;exitDx=0;exitDy=0;entryX=0.5;entryY=0;entryDx=0;entryDy=0;" edge="1" parent="1" source="fXF9OLCS9gmYI80QFEl_-107" target="fXF9OLCS9gmYI80QFEl_-108">
          <mxGeometry relative="1" as="geometry" />
        </mxCell>
        <mxCell id="fXF9OLCS9gmYI80QFEl_-107" value="..." style="ellipse;whiteSpace=wrap;html=1;aspect=fixed;" vertex="1" parent="1">
          <mxGeometry x="3540" y="610" width="80" height="80" as="geometry" />
        </mxCell>
        <mxCell id="fXF9OLCS9gmYI80QFEl_-108" value="..." style="ellipse;whiteSpace=wrap;html=1;aspect=fixed;" vertex="1" parent="1">
          <mxGeometry x="3540" y="730" width="80" height="80" as="geometry" />
        </mxCell>
        <mxCell id="fXF9OLCS9gmYI80QFEl_-111" value="&lt;h1 style=&quot;margin-top: 0px;&quot;&gt;Fase 6&lt;/h1&gt;&lt;p&gt;Fine Tuning do Modelo Campeão&lt;/p&gt;&lt;p&gt;Objetivo:&lt;/p&gt;&lt;p&gt;Refinamento dos hyperparâmetros do modelo escolhido&lt;/p&gt;" style="text;html=1;whiteSpace=wrap;overflow=hidden;rounded=0;" vertex="1" parent="1">
          <mxGeometry x="4370" y="60" width="180" height="160" as="geometry" />
        </mxCell>
        <mxCell id="fXF9OLCS9gmYI80QFEl_-129" style="edgeStyle=none;rounded=0;orthogonalLoop=1;jettySize=auto;html=1;exitX=0;exitY=1;exitDx=0;exitDy=0;entryX=0.5;entryY=0;entryDx=0;entryDy=0;" edge="1" parent="1" source="fXF9OLCS9gmYI80QFEl_-113" target="fXF9OLCS9gmYI80QFEl_-114">
          <mxGeometry relative="1" as="geometry" />
        </mxCell>
        <mxCell id="fXF9OLCS9gmYI80QFEl_-130" style="edgeStyle=none;rounded=0;orthogonalLoop=1;jettySize=auto;html=1;exitX=0.5;exitY=1;exitDx=0;exitDy=0;entryX=0.5;entryY=0;entryDx=0;entryDy=0;" edge="1" parent="1" source="fXF9OLCS9gmYI80QFEl_-113" target="fXF9OLCS9gmYI80QFEl_-115">
          <mxGeometry relative="1" as="geometry" />
        </mxCell>
        <mxCell id="fXF9OLCS9gmYI80QFEl_-131" style="edgeStyle=none;rounded=0;orthogonalLoop=1;jettySize=auto;html=1;exitX=1;exitY=1;exitDx=0;exitDy=0;entryX=0.5;entryY=0;entryDx=0;entryDy=0;" edge="1" parent="1" source="fXF9OLCS9gmYI80QFEl_-113" target="fXF9OLCS9gmYI80QFEl_-116">
          <mxGeometry relative="1" as="geometry" />
        </mxCell>
        <mxCell id="fXF9OLCS9gmYI80QFEl_-113" value="Reg. Logística" style="ellipse;whiteSpace=wrap;html=1;aspect=fixed;" vertex="1" parent="1">
          <mxGeometry x="4360" y="430" width="80" height="80" as="geometry" />
        </mxCell>
        <mxCell id="fXF9OLCS9gmYI80QFEl_-132" style="edgeStyle=none;rounded=0;orthogonalLoop=1;jettySize=auto;html=1;exitX=0.5;exitY=1;exitDx=0;exitDy=0;entryX=0.5;entryY=0;entryDx=0;entryDy=0;" edge="1" parent="1" source="fXF9OLCS9gmYI80QFEl_-114" target="fXF9OLCS9gmYI80QFEl_-117">
          <mxGeometry relative="1" as="geometry" />
        </mxCell>
        <mxCell id="fXF9OLCS9gmYI80QFEl_-133" style="edgeStyle=none;rounded=0;orthogonalLoop=1;jettySize=auto;html=1;exitX=0.5;exitY=1;exitDx=0;exitDy=0;entryX=0.5;entryY=0;entryDx=0;entryDy=0;" edge="1" parent="1" source="fXF9OLCS9gmYI80QFEl_-114" target="fXF9OLCS9gmYI80QFEl_-118">
          <mxGeometry relative="1" as="geometry" />
        </mxCell>
        <mxCell id="fXF9OLCS9gmYI80QFEl_-134" style="edgeStyle=none;rounded=0;orthogonalLoop=1;jettySize=auto;html=1;exitX=0.5;exitY=1;exitDx=0;exitDy=0;entryX=0.5;entryY=0;entryDx=0;entryDy=0;" edge="1" parent="1" source="fXF9OLCS9gmYI80QFEl_-114" target="fXF9OLCS9gmYI80QFEl_-119">
          <mxGeometry relative="1" as="geometry" />
        </mxCell>
        <mxCell id="fXF9OLCS9gmYI80QFEl_-114" value="Regularização L2 (Ridge)" style="ellipse;whiteSpace=wrap;html=1;aspect=fixed;" vertex="1" parent="1">
          <mxGeometry x="4150" y="560" width="80" height="80" as="geometry" />
        </mxCell>
        <mxCell id="fXF9OLCS9gmYI80QFEl_-135" style="edgeStyle=none;rounded=0;orthogonalLoop=1;jettySize=auto;html=1;exitX=0.5;exitY=1;exitDx=0;exitDy=0;entryX=0.5;entryY=0;entryDx=0;entryDy=0;" edge="1" parent="1" source="fXF9OLCS9gmYI80QFEl_-115" target="fXF9OLCS9gmYI80QFEl_-120">
          <mxGeometry relative="1" as="geometry" />
        </mxCell>
        <mxCell id="fXF9OLCS9gmYI80QFEl_-136" style="edgeStyle=none;rounded=0;orthogonalLoop=1;jettySize=auto;html=1;exitX=0.5;exitY=1;exitDx=0;exitDy=0;entryX=0.5;entryY=0;entryDx=0;entryDy=0;" edge="1" parent="1" source="fXF9OLCS9gmYI80QFEl_-115" target="fXF9OLCS9gmYI80QFEl_-121">
          <mxGeometry relative="1" as="geometry" />
        </mxCell>
        <mxCell id="fXF9OLCS9gmYI80QFEl_-137" style="edgeStyle=none;rounded=0;orthogonalLoop=1;jettySize=auto;html=1;exitX=0.5;exitY=1;exitDx=0;exitDy=0;entryX=0.5;entryY=0;entryDx=0;entryDy=0;" edge="1" parent="1" source="fXF9OLCS9gmYI80QFEl_-115" target="fXF9OLCS9gmYI80QFEl_-122">
          <mxGeometry relative="1" as="geometry" />
        </mxCell>
        <mxCell id="fXF9OLCS9gmYI80QFEl_-115" value="Regularização L1 (LASSO)" style="ellipse;whiteSpace=wrap;html=1;aspect=fixed;" vertex="1" parent="1">
          <mxGeometry x="4360" y="550" width="80" height="80" as="geometry" />
        </mxCell>
        <mxCell id="fXF9OLCS9gmYI80QFEl_-138" style="edgeStyle=none;rounded=0;orthogonalLoop=1;jettySize=auto;html=1;exitX=0.5;exitY=1;exitDx=0;exitDy=0;entryX=0.5;entryY=0;entryDx=0;entryDy=0;" edge="1" parent="1" source="fXF9OLCS9gmYI80QFEl_-116" target="fXF9OLCS9gmYI80QFEl_-124">
          <mxGeometry relative="1" as="geometry" />
        </mxCell>
        <mxCell id="fXF9OLCS9gmYI80QFEl_-139" style="edgeStyle=none;rounded=0;orthogonalLoop=1;jettySize=auto;html=1;exitX=0.5;exitY=1;exitDx=0;exitDy=0;entryX=0.5;entryY=0;entryDx=0;entryDy=0;" edge="1" parent="1" source="fXF9OLCS9gmYI80QFEl_-116" target="fXF9OLCS9gmYI80QFEl_-125">
          <mxGeometry relative="1" as="geometry" />
        </mxCell>
        <mxCell id="fXF9OLCS9gmYI80QFEl_-140" style="edgeStyle=none;rounded=0;orthogonalLoop=1;jettySize=auto;html=1;exitX=0.5;exitY=1;exitDx=0;exitDy=0;entryX=0.5;entryY=0;entryDx=0;entryDy=0;" edge="1" parent="1" source="fXF9OLCS9gmYI80QFEl_-116" target="fXF9OLCS9gmYI80QFEl_-126">
          <mxGeometry relative="1" as="geometry" />
        </mxCell>
        <mxCell id="fXF9OLCS9gmYI80QFEl_-116" value="Regularização L1-L2&amp;nbsp;&lt;div&gt;(ElasticNet)&lt;/div&gt;" style="ellipse;whiteSpace=wrap;html=1;aspect=fixed;" vertex="1" parent="1">
          <mxGeometry x="4560" y="550" width="80" height="80" as="geometry" />
        </mxCell>
        <mxCell id="fXF9OLCS9gmYI80QFEl_-117" value="alpha&lt;div&gt;0.1&lt;/div&gt;" style="ellipse;whiteSpace=wrap;html=1;aspect=fixed;" vertex="1" parent="1">
          <mxGeometry x="3950" y="690" width="80" height="80" as="geometry" />
        </mxCell>
        <mxCell id="fXF9OLCS9gmYI80QFEl_-118" value="alpha&lt;div&gt;0.25&lt;/div&gt;" style="ellipse;whiteSpace=wrap;html=1;aspect=fixed;" vertex="1" parent="1">
          <mxGeometry x="4050" y="690" width="80" height="80" as="geometry" />
        </mxCell>
        <mxCell id="fXF9OLCS9gmYI80QFEl_-119" value="alpha&lt;div&gt;0.5&lt;/div&gt;" style="ellipse;whiteSpace=wrap;html=1;aspect=fixed;" vertex="1" parent="1">
          <mxGeometry x="4150" y="690" width="80" height="80" as="geometry" />
        </mxCell>
        <mxCell id="fXF9OLCS9gmYI80QFEl_-120" value="alpha&lt;div&gt;0.1&lt;/div&gt;" style="ellipse;whiteSpace=wrap;html=1;aspect=fixed;" vertex="1" parent="1">
          <mxGeometry x="4260" y="690" width="80" height="80" as="geometry" />
        </mxCell>
        <mxCell id="fXF9OLCS9gmYI80QFEl_-121" value="alpha&lt;div&gt;0.25&lt;/div&gt;" style="ellipse;whiteSpace=wrap;html=1;aspect=fixed;" vertex="1" parent="1">
          <mxGeometry x="4360" y="690" width="80" height="80" as="geometry" />
        </mxCell>
        <mxCell id="fXF9OLCS9gmYI80QFEl_-122" value="alpha&lt;div&gt;0.5&lt;/div&gt;" style="ellipse;whiteSpace=wrap;html=1;aspect=fixed;" vertex="1" parent="1">
          <mxGeometry x="4460" y="690" width="80" height="80" as="geometry" />
        </mxCell>
        <mxCell id="fXF9OLCS9gmYI80QFEl_-141" style="edgeStyle=none;rounded=0;orthogonalLoop=1;jettySize=auto;html=1;exitX=0.5;exitY=1;exitDx=0;exitDy=0;entryX=0.5;entryY=0;entryDx=0;entryDy=0;" edge="1" parent="1" source="fXF9OLCS9gmYI80QFEl_-124" target="fXF9OLCS9gmYI80QFEl_-127">
          <mxGeometry relative="1" as="geometry" />
        </mxCell>
        <mxCell id="fXF9OLCS9gmYI80QFEl_-142" style="edgeStyle=none;rounded=0;orthogonalLoop=1;jettySize=auto;html=1;exitX=0.5;exitY=1;exitDx=0;exitDy=0;entryX=0.5;entryY=0;entryDx=0;entryDy=0;" edge="1" parent="1" source="fXF9OLCS9gmYI80QFEl_-124" target="fXF9OLCS9gmYI80QFEl_-128">
          <mxGeometry relative="1" as="geometry" />
        </mxCell>
        <mxCell id="fXF9OLCS9gmYI80QFEl_-124" value="alpha&lt;div&gt;0.1&lt;/div&gt;" style="ellipse;whiteSpace=wrap;html=1;aspect=fixed;" vertex="1" parent="1">
          <mxGeometry x="4560" y="690" width="80" height="80" as="geometry" />
        </mxCell>
        <mxCell id="fXF9OLCS9gmYI80QFEl_-125" value="alpha&lt;div&gt;0.25&lt;/div&gt;" style="ellipse;whiteSpace=wrap;html=1;aspect=fixed;" vertex="1" parent="1">
          <mxGeometry x="4660" y="690" width="80" height="80" as="geometry" />
        </mxCell>
        <mxCell id="fXF9OLCS9gmYI80QFEl_-145" style="edgeStyle=none;rounded=0;orthogonalLoop=1;jettySize=auto;html=1;exitX=0.5;exitY=1;exitDx=0;exitDy=0;entryX=0.5;entryY=0;entryDx=0;entryDy=0;" edge="1" parent="1" source="fXF9OLCS9gmYI80QFEl_-126" target="fXF9OLCS9gmYI80QFEl_-143">
          <mxGeometry relative="1" as="geometry" />
        </mxCell>
        <mxCell id="fXF9OLCS9gmYI80QFEl_-146" style="edgeStyle=none;rounded=0;orthogonalLoop=1;jettySize=auto;html=1;exitX=0.5;exitY=1;exitDx=0;exitDy=0;entryX=0.5;entryY=0;entryDx=0;entryDy=0;" edge="1" parent="1" source="fXF9OLCS9gmYI80QFEl_-126" target="fXF9OLCS9gmYI80QFEl_-144">
          <mxGeometry relative="1" as="geometry" />
        </mxCell>
        <mxCell id="fXF9OLCS9gmYI80QFEl_-126" value="alpha&lt;div&gt;0.5&lt;/div&gt;" style="ellipse;whiteSpace=wrap;html=1;aspect=fixed;" vertex="1" parent="1">
          <mxGeometry x="4760" y="690" width="80" height="80" as="geometry" />
        </mxCell>
        <mxCell id="fXF9OLCS9gmYI80QFEl_-150" style="edgeStyle=none;rounded=0;orthogonalLoop=1;jettySize=auto;html=1;exitX=0.5;exitY=1;exitDx=0;exitDy=0;entryX=0.5;entryY=0;entryDx=0;entryDy=0;" edge="1" parent="1" source="fXF9OLCS9gmYI80QFEl_-127" target="fXF9OLCS9gmYI80QFEl_-148">
          <mxGeometry relative="1" as="geometry" />
        </mxCell>
        <mxCell id="fXF9OLCS9gmYI80QFEl_-151" style="edgeStyle=none;rounded=0;orthogonalLoop=1;jettySize=auto;html=1;exitX=0.5;exitY=1;exitDx=0;exitDy=0;entryX=0.5;entryY=0;entryDx=0;entryDy=0;" edge="1" parent="1" source="fXF9OLCS9gmYI80QFEl_-127" target="fXF9OLCS9gmYI80QFEl_-149">
          <mxGeometry relative="1" as="geometry" />
        </mxCell>
        <mxCell id="fXF9OLCS9gmYI80QFEl_-127" value="C&lt;div&gt;1&lt;/div&gt;" style="ellipse;whiteSpace=wrap;html=1;aspect=fixed;" vertex="1" parent="1">
          <mxGeometry x="4500" y="820" width="80" height="80" as="geometry" />
        </mxCell>
        <mxCell id="fXF9OLCS9gmYI80QFEl_-128" value="C&lt;div&gt;100&lt;/div&gt;" style="ellipse;whiteSpace=wrap;html=1;aspect=fixed;" vertex="1" parent="1">
          <mxGeometry x="4610" y="820" width="80" height="80" as="geometry" />
        </mxCell>
        <mxCell id="fXF9OLCS9gmYI80QFEl_-143" value="C&lt;div&gt;1&lt;/div&gt;" style="ellipse;whiteSpace=wrap;html=1;aspect=fixed;" vertex="1" parent="1">
          <mxGeometry x="4800" y="820" width="80" height="80" as="geometry" />
        </mxCell>
        <mxCell id="fXF9OLCS9gmYI80QFEl_-144" value="C&lt;div&gt;100&lt;/div&gt;" style="ellipse;whiteSpace=wrap;html=1;aspect=fixed;" vertex="1" parent="1">
          <mxGeometry x="4910" y="820" width="80" height="80" as="geometry" />
        </mxCell>
        <mxCell id="fXF9OLCS9gmYI80QFEl_-147" value="..." style="ellipse;whiteSpace=wrap;html=1;aspect=fixed;" vertex="1" parent="1">
          <mxGeometry x="4710" y="820" width="80" height="80" as="geometry" />
        </mxCell>
        <mxCell id="fXF9OLCS9gmYI80QFEl_-148" value="C&lt;div&gt;10&lt;/div&gt;" style="ellipse;whiteSpace=wrap;html=1;aspect=fixed;" vertex="1" parent="1">
          <mxGeometry x="4430" y="930" width="80" height="80" as="geometry" />
        </mxCell>
        <mxCell id="fXF9OLCS9gmYI80QFEl_-149" value="C&lt;div&gt;20&lt;/div&gt;" style="ellipse;whiteSpace=wrap;html=1;aspect=fixed;" vertex="1" parent="1">
          <mxGeometry x="4550" y="930" width="80" height="80" as="geometry" />
        </mxCell>
        <mxCell id="fXF9OLCS9gmYI80QFEl_-152" value="&lt;h1 style=&quot;margin-top: 0px;&quot;&gt;Fase 7&lt;/h1&gt;&lt;p&gt;Revisão&lt;/p&gt;&lt;p&gt;Objetivo:&lt;/p&gt;&lt;p&gt;Verificar feature importance, performance do modelo campeão em diferentes métricas&lt;/p&gt;" style="text;html=1;whiteSpace=wrap;overflow=hidden;rounded=0;" vertex="1" parent="1">
          <mxGeometry x="5290" y="80" width="180" height="160" as="geometry" />
        </mxCell>
        <mxCell id="fXF9OLCS9gmYI80QFEl_-153" value="PowerShap&lt;div&gt;com Modelo mais promissor até aqui&lt;/div&gt;" style="rounded=1;whiteSpace=wrap;html=1;" vertex="1" parent="1">
          <mxGeometry x="1530" y="280" width="120" height="60" as="geometry" />
        </mxCell>
        <mxCell id="fXF9OLCS9gmYI80QFEl_-154" value="Definir um % de corte para as features de maior relevância" style="text;html=1;align=center;verticalAlign=middle;whiteSpace=wrap;rounded=0;" vertex="1" parent="1">
          <mxGeometry x="1530" y="340" width="120" height="80" as="geometry" />
        </mxCell>
        <mxCell id="fXF9OLCS9gmYI80QFEl_-157" style="edgeStyle=none;rounded=0;orthogonalLoop=1;jettySize=auto;html=1;exitX=0.5;exitY=1;exitDx=0;exitDy=0;" edge="1" parent="1" source="fXF9OLCS9gmYI80QFEl_-155" target="fXF9OLCS9gmYI80QFEl_-156">
          <mxGeometry relative="1" as="geometry" />
        </mxCell>
        <mxCell id="fXF9OLCS9gmYI80QFEl_-155" value="% corte Shap" style="ellipse;whiteSpace=wrap;html=1;aspect=fixed;" vertex="1" parent="1">
          <mxGeometry x="1690" y="620" width="80" height="80" as="geometry" />
        </mxCell>
        <mxCell id="fXF9OLCS9gmYI80QFEl_-156" value="..." style="ellipse;whiteSpace=wrap;html=1;aspect=fixed;" vertex="1" parent="1">
          <mxGeometry x="1690" y="740" width="80" height="80" as="geometry" />
        </mxCell>
        <mxCell id="fXF9OLCS9gmYI80QFEl_-158" value="&lt;div&gt;Testes&lt;/div&gt;" style="rounded=1;whiteSpace=wrap;html=1;" vertex="1" parent="1">
          <mxGeometry x="4380" y="255" width="120" height="60" as="geometry" />
        </mxCell>
        <mxCell id="fXF9OLCS9gmYI80QFEl_-159" value="&lt;div&gt;Análises&lt;/div&gt;" style="rounded=1;whiteSpace=wrap;html=1;" vertex="1" parent="1">
          <mxGeometry x="5290" y="275" width="120" height="60" as="geometry" />
        </mxCell>
      </root>
    </mxGraphModel>
  </diagram>
</mxfile>
